<?xml version="1.0" standalone="no"?>
<svg xmlns:xlink="http://www.w3.org/1999/xlink" id="wave" style="transform:rotate(180deg); transition: 0.3s" viewBox="0 0 1440 260" version="1.1" xmlns="http://www.w3.org/2000/svg"><defs><linearGradient id="sw-gradient-0" x1="0" x2="0" y1="1" y2="0"><stop stop-color="rgba(143, 46, 43, 1)" offset="0%"/><stop stop-color="rgba(187, 44, 43, 1)" offset="100%"/></linearGradient></defs><path style="transform:translate(0, 0px); opacity:1" fill="url(#sw-gradient-0)" d="M0,156L16,134.3C32,113,64,69,96,78C128,87,160,147,192,147.3C224,147,256,87,288,86.7C320,87,352,147,384,160.3C416,173,448,139,480,138.7C512,139,544,173,576,190.7C608,208,640,208,672,186.3C704,165,736,121,768,125.7C800,130,832,182,864,190.7C896,199,928,165,960,160.3C992,156,1024,182,1056,177.7C1088,173,1120,139,1152,117C1184,95,1216,87,1248,95.3C1280,104,1312,130,1344,143C1376,156,1408,156,1440,169C1472,182,1504,208,1536,190.7C1568,173,1600,113,1632,91C1664,69,1696,87,1728,108.3C1760,130,1792,156,1824,177.7C1856,199,1888,217,1920,195C1952,173,1984,113,2016,91C2048,69,2080,87,2112,86.7C2144,87,2176,69,2208,78C2240,87,2272,121,2288,138.7L2304,156L2304,260L2288,260C2272,260,2240,260,2208,260C2176,260,2144,260,2112,260C2080,260,2048,260,2016,260C1984,260,1952,260,1920,260C1888,260,1856,260,1824,260C1792,260,1760,260,1728,260C1696,260,1664,260,1632,260C1600,260,1568,260,1536,260C1504,260,1472,260,1440,260C1408,260,1376,260,1344,260C1312,260,1280,260,1248,260C1216,260,1184,260,1152,260C1120,260,1088,260,1056,260C1024,260,992,260,960,260C928,260,896,260,864,260C832,260,800,260,768,260C736,260,704,260,672,260C640,260,608,260,576,260C544,260,512,260,480,260C448,260,416,260,384,260C352,260,320,260,288,260C256,260,224,260,192,260C160,260,128,260,96,260C64,260,32,260,16,260L0,260Z"/></svg>